<?xml version="1.0" encoding="utf-8"?>
<!-- Generator: Adobe Illustrator 15.1.0, SVG Export Plug-In . SVG Version: 6.00 Build 0)  -->
<!DOCTYPE svg PUBLIC "-//W3C//DTD SVG 1.1//EN" "http://www.w3.org/Graphics/SVG/1.1/DTD/svg11.dtd">
<svg version="1.1" id="Ebene_1" xmlns="http://www.w3.org/2000/svg" xmlns:xlink="http://www.w3.org/1999/xlink" x="0px" y="0px"
	 width="81.73px" height="133.83px" viewBox="0 0 81.73 133.83" enable-background="new 0 0 81.73 133.83" xml:space="preserve">
<circle fill="#FFFFFF" cx="40.863" cy="121.015" r="4.483"/>
<path fill="#FFFFFF" d="M72.76,0H8.965C5.361,0,0,2.387,0,8.964v115.903c0,3.604,2.388,8.965,8.965,8.965H72.76
	c3.604,0,8.965-2.389,8.965-8.965V8.964C81.725,5.361,79.337,0,72.76,0z M76.924,124.867c0,3.789-3.189,4.146-4.178,4.164H8.965
	c-3.797,0-4.147-3.203-4.164-4.164V8.964c0-3.796,3.202-4.147,4.164-4.165H72.76c3.797,0,4.147,3.203,4.164,4.165V124.867z"/>
<path fill="#FFFFFF" d="M40.85,65.209c-3.104,0-5.983,1.404-7.899,3.852c-0.817,1.045-0.634,2.553,0.41,3.371
	c1.045,0.816,2.554,0.633,3.369-0.412c1.001-1.277,2.502-2.01,4.12-2.01c1.63,0,3.137,0.74,4.136,2.033
	c0.474,0.613,1.184,0.934,1.901,0.934c0.512,0,1.028-0.164,1.466-0.502c1.049-0.811,1.242-2.316,0.432-3.365
	C46.869,66.63,43.978,65.209,40.85,65.209z"/>
<path fill="#FFFFFF" d="M40.85,56.49c-5.753,0-11.079,2.608-14.614,7.157c-0.812,1.046-0.624,2.554,0.423,3.368
	c1.045,0.813,2.554,0.624,3.368-0.422c2.618-3.37,6.563-5.302,10.823-5.302c4.29,0,8.253,1.956,10.872,5.366
	c0.473,0.615,1.185,0.938,1.905,0.938c0.51,0,1.024-0.162,1.46-0.497c1.051-0.808,1.249-2.314,0.441-3.365
	C51.993,59.13,46.644,56.49,40.85,56.49z"/>
<path fill="#FFFFFF" d="M40.85,47.514c-8.633,0-16.621,3.916-21.916,10.745c-0.812,1.047-0.622,2.555,0.426,3.367
	c1.048,0.812,2.556,0.622,3.367-0.426c4.379-5.647,10.985-8.886,18.123-8.886c7.153,0,13.768,3.25,18.148,8.917
	c0.473,0.612,1.183,0.933,1.9,0.932c0.513,0,1.029-0.164,1.466-0.501c1.049-0.811,1.242-2.318,0.431-3.367
	C57.499,51.443,49.5,47.514,40.85,47.514z"/>
<path fill="#FFFFFF" d="M9.719,113.055h63.322V14.131H9.719V113.055z M14.52,18.931H68.24v89.325H14.52V18.931z"/>
</svg>
