<?xml version="1.0" encoding="utf-8"?>
<!-- Generator: Adobe Illustrator 15.1.0, SVG Export Plug-In . SVG Version: 6.00 Build 0)  -->
<!DOCTYPE svg PUBLIC "-//W3C//DTD SVG 1.1//EN" "http://www.w3.org/Graphics/SVG/1.1/DTD/svg11.dtd">
<svg version="1.1" id="Ebene_1" xmlns="http://www.w3.org/2000/svg" xmlns:xlink="http://www.w3.org/1999/xlink" x="0px" y="0px"
	 width="116.32px" height="166.81px" viewBox="0 0 116.32 166.81" enable-background="new 0 0 116.32 166.81" xml:space="preserve">
<path fill="#FFFFFF" d="M82.392,31.646c-0.938-0.937-2.457-0.934-3.394,0.003L60.573,50.109V2.4c0-1.326-1.075-2.4-2.4-2.4
	s-2.4,1.074-2.4,2.4v47.677L37.345,31.648c-0.938-0.938-2.457-0.937-3.395,0c-0.938,0.938-0.938,2.457,0,3.394l20.632,20.633
	c0.245,0.244,1.565,1.468,3.495,1.547c0.061,0.002,0.122,0.004,0.186,0.004c0.949,0,2.278-0.289,3.541-1.556l20.591-20.63
	C83.331,34.102,83.33,32.583,82.392,31.646z"/>
<path fill="#FFFFFF" d="M107.358,81.801H8.964C5.36,81.801,0,84.188,0,90.766v67.076c0,3.604,2.388,8.967,8.964,8.967h98.395
	c3.604,0,8.965-2.389,8.965-8.967V90.766C116.323,87.162,113.936,81.801,107.358,81.801z M111.522,90.766v67.076
	c0,0.164-0.014,0.312-0.024,0.464L77.613,124.42l33.894-33.958C111.516,90.576,111.521,90.682,111.522,90.766z M8.964,86.602h98.395
	c0.411,0,0.774,0.043,1.109,0.111l-47.305,47.394c-2.682,2.687-5.198,0.668-5.89,0L7.896,86.729
	C8.337,86.631,8.722,86.605,8.964,86.602z M4.801,90.766c0-0.115,0.012-0.219,0.018-0.328l33.914,33.915l-33.9,33.965
	c-0.021-0.188-0.029-0.351-0.031-0.476V90.766z M107.345,162.008H8.964c-0.349,0-0.659-0.034-0.951-0.084l34.113-34.177l9.753,9.753
	c0.16,0.16,1.625,1.583,3.839,2.321c3.152,1.051,6.291,0.228,8.841-2.322l9.664-9.682l34.084,34.085
	C107.914,161.979,107.57,162.004,107.345,162.008z"/>
</svg>
