<?xml version="1.0" encoding="UTF-8"?>
<svg viewBox="0 0 24 24" version="1.1" xmlns="http://www.w3.org/2000/svg" xmlns:xlink="http://www.w3.org/1999/xlink">
    <g id="Symbols" stroke="none" stroke-width="1" fill="none" fill-rule="evenodd">
        <g id="safety-warning-electricity" fill="#000000" fill-rule="nonzero">
            <g id="Shape">
                <path d="M23.9,22.163 L12.81,0.974 C12.6379171,0.691653729 12.3311538,0.51936979 12.0005,0.51936979 C11.6698462,0.51936979 11.3630829,0.691653729 11.191,0.974 L0.105,22.159 C0.037578985,22.2889842 0.00323283487,22.4335815 0.005,22.58 C0.005,22.8186948 0.0998211563,23.0476134 0.268603897,23.2163961 C0.437386638,23.3851788 0.666305159,23.48 0.905,23.48 L23.1,23.48 C23.5970563,23.48 24,23.0770563 24,22.58 C24.0013558,22.434904 23.9670144,22.2917003 23.9,22.163 Z M14.227,15.211 L12.889,17.886 C12.8583656,17.9476556 12.8544014,18.019188 12.8780356,18.083851 C12.9016698,18.1485141 12.9508272,18.2006306 13.014,18.228 L13.7,18.521 C13.8860227,18.6005535 14.0057694,18.7843716 14.003361,18.9866769 C14.0009526,19.1889822 13.8768639,19.3698975 13.689,19.445 L11.189,20.445 C11.129947,20.4690352 11.0667564,20.4812656 11.003,20.481 C10.7987098,20.4809525 10.6149959,20.3566288 10.539,20.167 L9.539,17.667 C9.46412748,17.4793875 9.50949957,17.2651523 9.654,17.124 C9.79908614,16.983426 10.0145104,16.943971 10.2,17.024 L11.173,17.442 C11.2946474,17.4940855 11.4358119,17.4423544 11.495,17.324 L12.6,15.1 C12.6389236,15.0227132 12.6349299,14.9307601 12.5894521,14.857139 C12.5439742,14.783518 12.4635346,14.7387876 12.377,14.739 L10.496,14.739 C10.0079576,14.7727602 9.54058695,14.5366753 9.27814531,14.12382 C9.01570368,13.7109646 9.00029729,13.1875775 9.238,12.76 L11.819,7.167 C11.9926936,6.79089409 12.4383941,6.62680645 12.8145,6.8005 C13.1906059,6.97419355 13.3546936,7.41989409 13.181,7.796 L10.837,12.873 C10.8018302,12.9507477 10.8082221,13.0409861 10.854,13.113 C10.8995005,13.1849656 10.9788579,13.2284233 11.064,13.228 L13,13.228 C13.4880126,13.1918523 13.9555853,13.4302989 14.2128961,13.846537 C14.4702069,14.262775 14.4744874,14.7876204 14.224,15.208 L14.227,15.211 Z"></path>
            </g>
        </g>
    </g>
</svg>